<mxfile host="65bd71144e">
    <diagram id="hy6WPYcoyaStzOtm3ztI" name="第 1 页">
        <mxGraphModel dx="496" dy="659" grid="1" gridSize="10" guides="1" tooltips="1" connect="1" arrows="1" fold="1" page="1" pageScale="1" pageWidth="827" pageHeight="1169" math="0" shadow="0">
            <root>
                <mxCell id="0"/>
                <mxCell id="1" parent="0"/>
                <mxCell id="2" value="" style="endArrow=classic;html=1;" parent="1" edge="1">
                    <mxGeometry width="50" height="50" relative="1" as="geometry">
                        <mxPoint x="120" y="440" as="sourcePoint"/>
                        <mxPoint x="680" y="440" as="targetPoint"/>
                    </mxGeometry>
                </mxCell>
                <mxCell id="3" value="" style="rounded=0;whiteSpace=wrap;html=1;rotation=90;strokeColor=none;fillColor=#3c4396;" parent="1" vertex="1">
                    <mxGeometry x="25" y="335" width="200" height="10" as="geometry"/>
                </mxCell>
                <mxCell id="4" value="" style="rounded=0;whiteSpace=wrap;html=1;rotation=90;strokeColor=none;fillColor=#3c4396;" parent="1" vertex="1">
                    <mxGeometry x="70" y="335" width="200" height="10" as="geometry"/>
                </mxCell>
                <mxCell id="5" value="" style="rounded=0;whiteSpace=wrap;html=1;rotation=90;strokeColor=none;fillColor=#3c4396;" parent="1" vertex="1">
                    <mxGeometry x="110" y="335" width="200" height="10" as="geometry"/>
                </mxCell>
                <mxCell id="6" value="" style="rounded=0;whiteSpace=wrap;html=1;rotation=90;strokeColor=none;fillColor=#3c4396;" parent="1" vertex="1">
                    <mxGeometry x="150" y="335" width="200" height="10" as="geometry"/>
                </mxCell>
                <mxCell id="7" value="" style="rounded=0;whiteSpace=wrap;html=1;rotation=90;strokeColor=none;fillColor=#3c4396;" parent="1" vertex="1">
                    <mxGeometry x="270" y="335" width="200" height="10" as="geometry"/>
                </mxCell>
                <mxCell id="8" value="" style="rounded=0;whiteSpace=wrap;html=1;rotation=90;strokeColor=none;fillColor=#3c4396;" parent="1" vertex="1">
                    <mxGeometry x="310" y="335" width="200" height="10" as="geometry"/>
                </mxCell>
                <mxCell id="9" value="" style="rounded=0;whiteSpace=wrap;html=1;rotation=90;strokeColor=none;fillColor=#3c4396;" parent="1" vertex="1">
                    <mxGeometry x="470" y="335" width="200" height="10" as="geometry"/>
                </mxCell>
                <mxCell id="13" value="" style="rounded=0;whiteSpace=wrap;html=1;rotation=90;strokeColor=none;fillColor=#3c4396;" parent="1" vertex="1">
                    <mxGeometry x="430" y="335" width="200" height="10" as="geometry"/>
                </mxCell>
                <mxCell id="14" value="" style="rounded=0;whiteSpace=wrap;html=1;rotation=90;strokeColor=none;fillColor=#ff0954;" parent="1" vertex="1">
                    <mxGeometry x="215" y="535" width="200" height="10" as="geometry"/>
                </mxCell>
                <mxCell id="15" value="" style="rounded=0;whiteSpace=wrap;html=1;rotation=90;strokeColor=none;fillColor=#ff0954;" parent="1" vertex="1">
                    <mxGeometry x="375" y="535" width="200" height="10" as="geometry"/>
                </mxCell>
                <mxCell id="16" value="" style="rounded=0;whiteSpace=wrap;html=1;rotation=90;strokeColor=none;fillColor=#ff0954;" parent="1" vertex="1">
                    <mxGeometry x="535" y="535" width="200" height="10" as="geometry"/>
                </mxCell>
                <mxCell id="18" value="" style="endArrow=none;dashed=1;html=1;fontFamily=Helvetica;fontSize=12;fontColor=default;entryX=1;entryY=0;entryDx=0;entryDy=0;" parent="1" edge="1">
                    <mxGeometry width="50" height="50" relative="1" as="geometry">
                        <mxPoint x="310" y="440" as="sourcePoint"/>
                        <mxPoint x="255" y="439.9999999999999" as="targetPoint"/>
                        <Array as="points">
                            <mxPoint x="290" y="460"/>
                            <mxPoint x="270" y="470"/>
                            <mxPoint x="260" y="460"/>
                        </Array>
                    </mxGeometry>
                </mxCell>
                <mxCell id="20" value="" style="endArrow=none;dashed=1;html=1;fontFamily=Helvetica;fontSize=12;fontColor=default;entryX=1;entryY=0;entryDx=0;entryDy=0;" parent="1" edge="1">
                    <mxGeometry width="50" height="50" relative="1" as="geometry">
                        <mxPoint x="630" y="440" as="sourcePoint"/>
                        <mxPoint x="575" y="439.9999999999999" as="targetPoint"/>
                        <Array as="points">
                            <mxPoint x="610" y="460"/>
                            <mxPoint x="590" y="470"/>
                            <mxPoint x="580" y="460"/>
                        </Array>
                    </mxGeometry>
                </mxCell>
                <mxCell id="21" value="" style="endArrow=none;dashed=1;html=1;fontFamily=Helvetica;fontSize=12;fontColor=default;entryX=1;entryY=0;entryDx=0;entryDy=0;" parent="1" edge="1">
                    <mxGeometry width="50" height="50" relative="1" as="geometry">
                        <mxPoint x="469" y="440" as="sourcePoint"/>
                        <mxPoint x="414" y="439.9999999999999" as="targetPoint"/>
                        <Array as="points">
                            <mxPoint x="449" y="460"/>
                            <mxPoint x="429" y="470"/>
                            <mxPoint x="419" y="460"/>
                        </Array>
                    </mxGeometry>
                </mxCell>
                <mxCell id="22" value="等待时间" style="text;strokeColor=none;align=center;fillColor=none;html=1;verticalAlign=middle;whiteSpace=wrap;rounded=0;fontFamily=Helvetica;fontSize=12;fontColor=default;" parent="1" vertex="1">
                    <mxGeometry x="240" y="470" width="60" height="30" as="geometry"/>
                </mxCell>
                <mxCell id="24" value="事件频繁触发" style="text;strokeColor=none;align=center;fillColor=none;html=1;verticalAlign=middle;whiteSpace=wrap;rounded=0;fontFamily=Helvetica;fontSize=12;fontColor=default;" parent="1" vertex="1">
                    <mxGeometry x="145" y="200" width="80" height="30" as="geometry"/>
                </mxCell>
                <mxCell id="25" value="事件频繁触发" style="text;strokeColor=none;align=center;fillColor=none;html=1;verticalAlign=middle;whiteSpace=wrap;rounded=0;fontFamily=Helvetica;fontSize=12;fontColor=default;" parent="1" vertex="1">
                    <mxGeometry x="350" y="200" width="80" height="30" as="geometry"/>
                </mxCell>
                <mxCell id="26" value="事件频繁触发" style="text;strokeColor=none;align=center;fillColor=none;html=1;verticalAlign=middle;whiteSpace=wrap;rounded=0;fontFamily=Helvetica;fontSize=12;fontColor=default;" parent="1" vertex="1">
                    <mxGeometry x="510" y="200" width="80" height="30" as="geometry"/>
                </mxCell>
                <mxCell id="29" value="等待时间" style="text;strokeColor=none;align=center;fillColor=none;html=1;verticalAlign=middle;whiteSpace=wrap;rounded=0;fontFamily=Helvetica;fontSize=12;fontColor=default;" parent="1" vertex="1">
                    <mxGeometry x="400" y="470" width="60" height="30" as="geometry"/>
                </mxCell>
                <mxCell id="30" value="等待时间" style="text;strokeColor=none;align=center;fillColor=none;html=1;verticalAlign=middle;whiteSpace=wrap;rounded=0;fontFamily=Helvetica;fontSize=12;fontColor=default;" parent="1" vertex="1">
                    <mxGeometry x="560" y="470" width="60" height="30" as="geometry"/>
                </mxCell>
                <mxCell id="31" value="响应函数触发" style="text;strokeColor=none;align=center;fillColor=none;html=1;verticalAlign=middle;whiteSpace=wrap;rounded=0;fontFamily=Helvetica;fontSize=12;fontColor=default;" parent="1" vertex="1">
                    <mxGeometry x="285" y="650" width="60" height="30" as="geometry"/>
                </mxCell>
                <mxCell id="32" value="响应函数触发" style="text;strokeColor=none;align=center;fillColor=none;html=1;verticalAlign=middle;whiteSpace=wrap;rounded=0;fontFamily=Helvetica;fontSize=12;fontColor=default;" parent="1" vertex="1">
                    <mxGeometry x="445" y="650" width="60" height="30" as="geometry"/>
                </mxCell>
                <mxCell id="33" value="响应函数触发" style="text;strokeColor=none;align=center;fillColor=none;html=1;verticalAlign=middle;whiteSpace=wrap;rounded=0;fontFamily=Helvetica;fontSize=12;fontColor=default;" parent="1" vertex="1">
                    <mxGeometry x="605" y="650" width="60" height="30" as="geometry"/>
                </mxCell>
                <mxCell id="hLgLgU9qiMB3lRv-PFzO-33" value="debounce" style="text;strokeColor=none;align=center;fillColor=none;html=1;verticalAlign=middle;whiteSpace=wrap;rounded=0;" parent="1" vertex="1">
                    <mxGeometry x="680" y="425" width="60" height="30" as="geometry"/>
                </mxCell>
            </root>
        </mxGraphModel>
    </diagram>
    <diagram id="i8H1gQfcTRj_49B_UJ0W" name="第 2 页">
        <mxGraphModel dx="496" dy="659" grid="1" gridSize="10" guides="1" tooltips="1" connect="1" arrows="1" fold="1" page="1" pageScale="1" pageWidth="827" pageHeight="1169" math="0" shadow="0">
            <root>
                <mxCell id="0"/>
                <mxCell id="1" parent="0"/>
                <mxCell id="-jValTGQCPf8efFqf09h-1" value="" style="endArrow=classic;html=1;" parent="1" edge="1">
                    <mxGeometry width="50" height="50" relative="1" as="geometry">
                        <mxPoint x="120" y="440" as="sourcePoint"/>
                        <mxPoint x="680" y="440" as="targetPoint"/>
                    </mxGeometry>
                </mxCell>
                <mxCell id="-jValTGQCPf8efFqf09h-2" value="" style="rounded=0;whiteSpace=wrap;html=1;rotation=90;strokeColor=none;fillColor=#3c4396;" parent="1" vertex="1">
                    <mxGeometry x="25" y="335" width="200" height="10" as="geometry"/>
                </mxCell>
                <mxCell id="-jValTGQCPf8efFqf09h-3" value="" style="rounded=0;whiteSpace=wrap;html=1;rotation=90;strokeColor=none;fillColor=#3c4396;" parent="1" vertex="1">
                    <mxGeometry x="70" y="335" width="200" height="10" as="geometry"/>
                </mxCell>
                <mxCell id="-jValTGQCPf8efFqf09h-4" value="" style="rounded=0;whiteSpace=wrap;html=1;rotation=90;strokeColor=none;fillColor=#3c4396;" parent="1" vertex="1">
                    <mxGeometry x="110" y="335" width="200" height="10" as="geometry"/>
                </mxCell>
                <mxCell id="-jValTGQCPf8efFqf09h-5" value="" style="rounded=0;whiteSpace=wrap;html=1;rotation=90;strokeColor=none;fillColor=#3c4396;" parent="1" vertex="1">
                    <mxGeometry x="150" y="335" width="200" height="10" as="geometry"/>
                </mxCell>
                <mxCell id="-jValTGQCPf8efFqf09h-6" value="" style="rounded=0;whiteSpace=wrap;html=1;rotation=90;strokeColor=none;fillColor=#3c4396;" parent="1" vertex="1">
                    <mxGeometry x="190" y="335" width="200" height="10" as="geometry"/>
                </mxCell>
                <mxCell id="-jValTGQCPf8efFqf09h-7" value="" style="rounded=0;whiteSpace=wrap;html=1;rotation=90;strokeColor=none;fillColor=#3c4396;" parent="1" vertex="1">
                    <mxGeometry x="230" y="335" width="200" height="10" as="geometry"/>
                </mxCell>
                <mxCell id="-jValTGQCPf8efFqf09h-8" value="" style="rounded=0;whiteSpace=wrap;html=1;rotation=90;strokeColor=none;fillColor=#3c4396;" parent="1" vertex="1">
                    <mxGeometry x="314" y="335" width="200" height="10" as="geometry"/>
                </mxCell>
                <mxCell id="-jValTGQCPf8efFqf09h-9" value="" style="rounded=0;whiteSpace=wrap;html=1;rotation=90;strokeColor=none;fillColor=#3c4396;" parent="1" vertex="1">
                    <mxGeometry x="270" y="335" width="200" height="10" as="geometry"/>
                </mxCell>
                <mxCell id="-jValTGQCPf8efFqf09h-10" value="" style="rounded=0;whiteSpace=wrap;html=1;rotation=90;strokeColor=none;fillColor=#ff0954;" parent="1" vertex="1">
                    <mxGeometry x="25" y="535" width="200" height="10" as="geometry"/>
                </mxCell>
                <mxCell id="-jValTGQCPf8efFqf09h-11" value="" style="rounded=0;whiteSpace=wrap;html=1;rotation=90;strokeColor=none;fillColor=#ff0954;" parent="1" vertex="1">
                    <mxGeometry x="350" y="535" width="200" height="10" as="geometry"/>
                </mxCell>
                <mxCell id="-jValTGQCPf8efFqf09h-12" value="" style="rounded=0;whiteSpace=wrap;html=1;rotation=90;strokeColor=none;fillColor=#ff0954;" parent="1" vertex="1">
                    <mxGeometry x="510" y="535" width="200" height="10" as="geometry"/>
                </mxCell>
                <mxCell id="-jValTGQCPf8efFqf09h-15" value="" style="endArrow=none;dashed=1;html=1;fontFamily=Helvetica;fontSize=12;fontColor=default;entryX=1;entryY=0;entryDx=0;entryDy=0;exitX=0;exitY=1;exitDx=0;exitDy=0;" parent="1" source="9_8ei1ELL0KhoYuA-aSE-18" edge="1">
                    <mxGeometry width="50" height="50" relative="1" as="geometry">
                        <mxPoint x="200" y="450" as="sourcePoint"/>
                        <mxPoint x="130" y="440" as="targetPoint"/>
                        <Array as="points">
                            <mxPoint x="180" y="470"/>
                            <mxPoint x="160" y="480"/>
                            <mxPoint x="140" y="460"/>
                        </Array>
                    </mxGeometry>
                </mxCell>
                <mxCell id="-jValTGQCPf8efFqf09h-16" value="等待时间" style="text;strokeColor=none;align=center;fillColor=none;html=1;verticalAlign=middle;whiteSpace=wrap;rounded=0;fontFamily=Helvetica;fontSize=12;fontColor=default;" parent="1" vertex="1">
                    <mxGeometry x="137" y="484" width="60" height="30" as="geometry"/>
                </mxCell>
                <mxCell id="-jValTGQCPf8efFqf09h-18" value="事件频繁触发" style="text;strokeColor=none;align=center;fillColor=none;html=1;verticalAlign=middle;whiteSpace=wrap;rounded=0;fontFamily=Helvetica;fontSize=12;fontColor=default;" parent="1" vertex="1">
                    <mxGeometry x="325" y="160" width="90" height="40" as="geometry"/>
                </mxCell>
                <mxCell id="-jValTGQCPf8efFqf09h-22" value="响应函数触发" style="text;strokeColor=none;align=center;fillColor=none;html=1;verticalAlign=middle;whiteSpace=wrap;rounded=0;fontFamily=Helvetica;fontSize=12;fontColor=default;" parent="1" vertex="1">
                    <mxGeometry x="313" y="680" width="114" height="40" as="geometry"/>
                </mxCell>
                <mxCell id="OMlztpzv3xuH70z9kQvn-25" value="throttle" style="text;strokeColor=none;align=center;fillColor=none;html=1;verticalAlign=middle;whiteSpace=wrap;rounded=0;" parent="1" vertex="1">
                    <mxGeometry x="680" y="425" width="60" height="30" as="geometry"/>
                </mxCell>
                <mxCell id="9_8ei1ELL0KhoYuA-aSE-9" value="" style="rounded=0;whiteSpace=wrap;html=1;rotation=90;strokeColor=none;fillColor=#3c4396;" parent="1" vertex="1">
                    <mxGeometry x="314" y="335" width="200" height="10" as="geometry"/>
                </mxCell>
                <mxCell id="9_8ei1ELL0KhoYuA-aSE-10" value="" style="rounded=0;whiteSpace=wrap;html=1;rotation=90;strokeColor=none;fillColor=#3c4396;" parent="1" vertex="1">
                    <mxGeometry x="350" y="335" width="200" height="10" as="geometry"/>
                </mxCell>
                <mxCell id="9_8ei1ELL0KhoYuA-aSE-11" value="" style="rounded=0;whiteSpace=wrap;html=1;rotation=90;strokeColor=none;fillColor=#3c4396;" parent="1" vertex="1">
                    <mxGeometry x="390" y="335" width="200" height="10" as="geometry"/>
                </mxCell>
                <mxCell id="9_8ei1ELL0KhoYuA-aSE-12" value="" style="rounded=0;whiteSpace=wrap;html=1;rotation=90;strokeColor=none;fillColor=#3c4396;" parent="1" vertex="1">
                    <mxGeometry x="430" y="335" width="200" height="10" as="geometry"/>
                </mxCell>
                <mxCell id="9_8ei1ELL0KhoYuA-aSE-13" value="" style="rounded=0;whiteSpace=wrap;html=1;rotation=90;strokeColor=none;fillColor=#3c4396;" parent="1" vertex="1">
                    <mxGeometry x="470" y="335" width="200" height="10" as="geometry"/>
                </mxCell>
                <mxCell id="9_8ei1ELL0KhoYuA-aSE-14" value="" style="rounded=0;whiteSpace=wrap;html=1;rotation=90;strokeColor=none;fillColor=#3c4396;" parent="1" vertex="1">
                    <mxGeometry x="510" y="335" width="200" height="10" as="geometry"/>
                </mxCell>
                <mxCell id="9_8ei1ELL0KhoYuA-aSE-15" value="" style="rounded=0;whiteSpace=wrap;html=1;rotation=90;strokeColor=none;fillColor=#ff0954;" parent="1" vertex="1">
                    <mxGeometry x="430" y="535" width="200" height="10" as="geometry"/>
                </mxCell>
                <mxCell id="9_8ei1ELL0KhoYuA-aSE-16" value="" style="rounded=0;whiteSpace=wrap;html=1;rotation=90;strokeColor=none;fillColor=#ff0954;" parent="1" vertex="1">
                    <mxGeometry x="270" y="535" width="200" height="10" as="geometry"/>
                </mxCell>
                <mxCell id="9_8ei1ELL0KhoYuA-aSE-17" value="" style="rounded=0;whiteSpace=wrap;html=1;rotation=90;strokeColor=none;fillColor=#ff0954;" parent="1" vertex="1">
                    <mxGeometry x="190" y="535" width="200" height="10" as="geometry"/>
                </mxCell>
                <mxCell id="9_8ei1ELL0KhoYuA-aSE-18" value="" style="rounded=0;whiteSpace=wrap;html=1;rotation=90;strokeColor=none;fillColor=#ff0954;" parent="1" vertex="1">
                    <mxGeometry x="110" y="535" width="200" height="10" as="geometry"/>
                </mxCell>
                <mxCell id="9_8ei1ELL0KhoYuA-aSE-22" value="" style="endArrow=none;dashed=1;html=1;fontFamily=Helvetica;fontSize=12;fontColor=default;entryX=1;entryY=0;entryDx=0;entryDy=0;exitX=0;exitY=1;exitDx=0;exitDy=0;" parent="1" edge="1">
                    <mxGeometry width="50" height="50" relative="1" as="geometry">
                        <mxPoint x="527.5" y="440" as="sourcePoint"/>
                        <mxPoint x="452.5" y="440" as="targetPoint"/>
                        <Array as="points">
                            <mxPoint x="502.5" y="470"/>
                            <mxPoint x="482.5" y="480"/>
                            <mxPoint x="462.5" y="460"/>
                        </Array>
                    </mxGeometry>
                </mxCell>
                <mxCell id="9_8ei1ELL0KhoYuA-aSE-23" value="" style="endArrow=none;dashed=1;html=1;fontFamily=Helvetica;fontSize=12;fontColor=default;entryX=1;entryY=0;entryDx=0;entryDy=0;exitX=0;exitY=1;exitDx=0;exitDy=0;" parent="1" edge="1">
                    <mxGeometry width="50" height="50" relative="1" as="geometry">
                        <mxPoint x="451" y="440" as="sourcePoint"/>
                        <mxPoint x="376" y="440" as="targetPoint"/>
                        <Array as="points">
                            <mxPoint x="426" y="470"/>
                            <mxPoint x="406" y="480"/>
                            <mxPoint x="386" y="460"/>
                        </Array>
                    </mxGeometry>
                </mxCell>
                <mxCell id="9_8ei1ELL0KhoYuA-aSE-24" value="" style="endArrow=none;dashed=1;html=1;fontFamily=Helvetica;fontSize=12;fontColor=default;entryX=1;entryY=0;entryDx=0;entryDy=0;exitX=0;exitY=1;exitDx=0;exitDy=0;" parent="1" edge="1">
                    <mxGeometry width="50" height="50" relative="1" as="geometry">
                        <mxPoint x="287.5" y="440" as="sourcePoint"/>
                        <mxPoint x="212.5" y="440" as="targetPoint"/>
                        <Array as="points">
                            <mxPoint x="262.5" y="470"/>
                            <mxPoint x="242.5" y="480"/>
                            <mxPoint x="222.5" y="460"/>
                        </Array>
                    </mxGeometry>
                </mxCell>
                <mxCell id="9_8ei1ELL0KhoYuA-aSE-25" value="" style="endArrow=none;dashed=1;html=1;fontFamily=Helvetica;fontSize=12;fontColor=default;entryX=1;entryY=0;entryDx=0;entryDy=0;exitX=0;exitY=1;exitDx=0;exitDy=0;" parent="1" edge="1">
                    <mxGeometry width="50" height="50" relative="1" as="geometry">
                        <mxPoint x="367.5" y="440" as="sourcePoint"/>
                        <mxPoint x="292.5" y="440" as="targetPoint"/>
                        <Array as="points">
                            <mxPoint x="342.5" y="470"/>
                            <mxPoint x="322.5" y="480"/>
                            <mxPoint x="302.5" y="460"/>
                        </Array>
                    </mxGeometry>
                </mxCell>
                <mxCell id="9_8ei1ELL0KhoYuA-aSE-26" value="" style="endArrow=none;dashed=1;html=1;fontFamily=Helvetica;fontSize=12;fontColor=default;entryX=1;entryY=0;entryDx=0;entryDy=0;exitX=0;exitY=1;exitDx=0;exitDy=0;" parent="1" edge="1">
                    <mxGeometry width="50" height="50" relative="1" as="geometry">
                        <mxPoint x="607.5" y="440" as="sourcePoint"/>
                        <mxPoint x="532.5" y="440" as="targetPoint"/>
                        <Array as="points">
                            <mxPoint x="582.5" y="470"/>
                            <mxPoint x="562.5" y="480"/>
                            <mxPoint x="542.5" y="460"/>
                        </Array>
                    </mxGeometry>
                </mxCell>
            </root>
        </mxGraphModel>
    </diagram>
</mxfile>